<?xml version="1.0" standalone="no"?><!DOCTYPE svg PUBLIC "-//W3C//DTD SVG 1.1//EN" "http://www.w3.org/Graphics/SVG/1.1/DTD/svg11.dtd"><svg width="32" height="32" viewBox="0 0 32 32" version="1.1" xmlns="http://www.w3.org/2000/svg" xmlns:xlink="http://www.w3.org/1999/xlink"><defs><style type="text/css"><![CDATA[
@font-face { font-family: ifont; src: url("http://at.alicdn.com/t/font_1442373896_4754455.eot?#iefix") format("embedded-opentype"), url("http://at.alicdn.com/t/font_1442373896_4754455.woff") format("woff"), url("http://at.alicdn.com/t/font_1442373896_4754455.ttf") format("truetype"), url("http://at.alicdn.com/t/font_1442373896_4754455.svg#ifont") format("svg"); }

]]></style></defs><g class="transform-group"><g transform="scale(0.03125, 0.03125)"><path d="M889.15 1007.484c0 0-754.302 0-754.302 0-49.159 0-89.187-40.221-89.187-89.576 0 0 0-288.547 0-288.547 0-13.602 11.076-24.677 24.483-24.677 13.602 0 24.677 11.076 24.677 24.677 0 0 0 288.547 0 288.547 0 22.15 17.876 40.221 40.028 40.221 0 0 754.302 0 754.302 0 22.15 0 40.028-18.071 40.028-40.221 0 0 0-288.547 0-288.547 0-13.602 11.076-24.677 24.677-24.677 13.407 0 24.483 11.076 24.483 24.677 0 0 0 288.547 0 288.547 0 49.354-40.028 89.576-89.187 89.576zM529.489 720.881c-1.166 1.166-2.526 2.331-3.886 3.109-0.582 0.389-1.166 0.777-1.749 0.971-0.777 0.582-1.555 0.971-2.526 1.359-0.777 0.389-1.555 0.582-2.331 0.777-0.777 0.194-1.359 0.389-2.138 0.582-1.555 0.389-3.303 0.582-4.858 0.582-1.555 0-3.303-0.194-4.858-0.582-0.582-0.194-1.359-0.389-1.944-0.582-0.971-0.194-1.749-0.389-2.526-0.777-0.777-0.389-1.555-0.777-2.331-1.166-0.582-0.389-1.359-0.777-1.943-1.166-1.359-0.777-2.72-1.944-3.886-3.109 0 0-252.794-253.765-252.794-253.765-9.521-9.521-9.521-25.26 0-34.781 9.521-9.716 25.065-9.716 34.781 0 0 0 211.018 211.796 211.018 211.796 0 0 0-602.936 0-602.936 0-13.602 10.881-24.677 24.483-24.677 13.602 0 24.483 11.076 24.483 24.677 0 0 0 602.936 0 602.936 0 0 211.018-211.796 211.018-211.796 9.521-9.716 25.26-9.716 34.781 0 9.521 9.521 9.521 25.26 0 34.781 0 0-252.794 253.765-252.794 253.765z" fill="#272636"></path></g></g></svg>