<?xml version="1.0" standalone="no"?><!DOCTYPE svg PUBLIC "-//W3C//DTD SVG 1.1//EN" "http://www.w3.org/Graphics/SVG/1.1/DTD/svg11.dtd"><svg width="32.03125" height="32" viewBox="0 0 32.03125 32" version="1.1" xmlns="http://www.w3.org/2000/svg" xmlns:xlink="http://www.w3.org/1999/xlink"><defs><style type="text/css"><![CDATA[
@font-face { font-family: ifont; src: url("http://at.alicdn.com/t/font_1442373896_4754455.eot?#iefix") format("embedded-opentype"), url("http://at.alicdn.com/t/font_1442373896_4754455.woff") format("woff"), url("http://at.alicdn.com/t/font_1442373896_4754455.ttf") format("truetype"), url("http://at.alicdn.com/t/font_1442373896_4754455.svg#ifont") format("svg"); }

]]></style></defs><g class="transform-group"><g transform="scale(0.03125, 0.03125)"><path d="M511.829333 85.674667C511.829333 85.674667 511.829333 85.674667 511.829333 85.674667 511.829333 85.674667 937.813333 509.610667 937.813333 509.610667 937.813333 509.610667 838.485333 608.938667 838.485333 608.938667 838.485333 608.938667 813.226667 633.856 813.226667 633.856 813.226667 633.856 813.226667 669.354667 813.226667 669.354667 813.226667 669.354667 813.226667 937.984 813.226667 937.984 813.226667 937.984 684.202667 937.984 684.202667 937.984 684.202667 937.984 684.202667 680.96 684.202667 680.96 684.202667 680.96 684.202667 595.285333 684.202667 595.285333 684.202667 595.285333 598.186667 595.285333 598.186667 595.285333 598.186667 595.285333 425.813333 595.285333 425.813333 595.285333 425.813333 595.285333 339.456 595.285333 339.456 595.285333 339.456 595.285333 339.797333 681.301333 339.797333 681.301333 339.797333 681.301333 340.48 937.984 340.48 937.984 340.48 937.984 210.773333 937.984 210.773333 937.984 210.773333 937.984 210.773333 669.354667 210.773333 669.354667 210.773333 669.354667 210.773333 633.856 210.773333 633.856 210.773333 633.856 185.514667 608.938667 185.514667 608.938667 185.514667 608.938667 85.845333 509.610667 85.845333 509.610667 85.845333 509.610667 511.829333 85.674667 511.829333 85.674667 511.829333 85.674667 511.829333 85.674667 511.829333 85.674667M511.829333 0C489.984 0 467.797333 8.533333 451.072 25.258667 451.072 25.258667 25.088 449.194667 25.088 449.194667-8.362667 482.645333-8.362667 536.917333 25.088 570.368 25.088 570.368 124.757333 669.354667 124.757333 669.354667 124.757333 669.354667 124.757333 937.984 124.757333 937.984 124.757333 985.429333 163.328 1023.658667 210.773333 1023.658667 210.773333 1023.658667 426.837333 1023.658667 426.837333 1023.658667 426.837333 1023.658667 425.813333 680.96 425.813333 680.96 425.813333 680.96 598.186667 680.96 598.186667 680.96 598.186667 680.96 598.186667 1023.658667 598.186667 1023.658667 598.186667 1023.658667 813.226667 1023.658667 813.226667 1023.658667 860.672 1023.658667 899.242667 985.429333 899.242667 937.984 899.242667 937.984 899.242667 669.354667 899.242667 669.354667 899.242667 669.354667 998.912 570.368 998.912 570.368 1032.362667 536.917333 1032.362667 482.645333 998.912 449.194667 998.912 449.194667 572.928 25.258667 572.928 25.258667 555.861333 8.533333 534.016 0 511.829333 0 511.829333 0 511.829333 0 511.829333 0Z" fill="#272636"></path></g></g></svg>