<?xml version="1.0" encoding="utf-8"?>
<!-- Generated by IcoMoon.io -->
<!DOCTYPE svg PUBLIC "-//W3C//DTD SVG 1.1//EN" "http://www.w3.org/Graphics/SVG/1.1/DTD/svg11.dtd">
<svg version="1.1" xmlns="http://www.w3.org/2000/svg" xmlns:xlink="http://www.w3.org/1999/xlink" width="32" height="32" viewBox="0 0 32 32">
<path d="M28.146 27.063c-0.206 2.213-1.988 3.947-4.181 3.947-2.325 0-4.219-1.95-4.219-4.36 0-2.4 1.894-4.35 4.219-4.35 0.872 0 1.678 0.272 2.353 0.741 0 0 0-9.45 0-9.45s-14.063-3.872-14.063-3.872c0 0 0 13.547 0 13.547s-0.047-0.075-0.047-0.075c-0.206 2.213-1.988 3.947-4.181 3.947-2.325 0-4.219-1.95-4.219-4.36 0-2.4 1.894-4.35 4.219-4.35 0.872 0 1.678 0.272 2.353 0.741 0-3.291 0-12.422 0-15.254 0-2.447 1.219-2.878 2.813-2.906 1.041-0.019 7.519 2.025 11.813 3.516 2.522 0.881 3.188 2.222 3.188 3.263 0 3.656 0 19.351 0 19.351s-0.047-0.075-0.047-0.075zM23.974 24.232c-1.303 0-2.344 1.088-2.344 2.419 0 1.341 1.041 2.419 2.344 2.419 1.294 0 2.344-1.078 2.344-2.419 0-1.331-1.050-2.419-2.344-2.419zM8.036 20.36c-1.303 0-2.344 1.088-2.344 2.419 0 1.341 1.041 2.419 2.344 2.419 1.294 0 2.344-1.078 2.344-2.419 0-1.331-1.050-2.419-2.344-2.419zM24.311 6.475c-1.538-0.431-8.541-2.419-10.079-2.86-2.925-0.825-2.353 3.722 0 4.388 2.353 0.675 7.716 2.194 10.079 2.86 1.209 0.347 2.016-0.422 2.016-1.622 0-1.059-0.6-2.363-2.016-2.766z"></path>
</svg>
