<?xml version="1.0" encoding="utf-8"?>
<!-- Generated by IcoMoon.io -->
<!DOCTYPE svg PUBLIC "-//W3C//DTD SVG 1.1//EN" "http://www.w3.org/Graphics/SVG/1.1/DTD/svg11.dtd">
<svg version="1.1" xmlns="http://www.w3.org/2000/svg" xmlns:xlink="http://www.w3.org/1999/xlink" width="44" height="32" viewBox="0 0 44 32">
<path d="M41.722 11.175c-0.181 0.169-0.42 0.254-0.65 0.254-0.259 0-0.514-0.105-0.704-0.311-4.81-5.208-11.632-8.198-18.712-8.198-7.087 0-13.668 2.845-18.53 8.006-0.364 0.387-0.971 0.405-1.357 0.040-0.387-0.364-0.405-0.972-0.041-1.36 5.232-5.551 12.307-8.606 19.928-8.606 7.615 0 14.948 3.214 20.122 8.817 0.359 0.389 0.335 1-0.056 1.358zM21.656 9.535c5.639 0 11.032 2.414 14.798 6.625 0.353 0.395 0.319 1.002-0.075 1.357-0.184 0.164-0.412 0.245-0.64 0.245-0.263 0-0.528-0.11-0.715-0.32-3.4-3.803-8.27-5.985-13.368-5.985-4.996 0-9.806 2.112-13.193 5.793-0.357 0.39-0.967 0.416-1.355 0.055-0.393-0.359-0.413-0.967-0.060-1.358 3.753-4.073 9.078-6.41 14.607-6.41zM21.656 18.626c3.532 0 6.844 1.563 9.089 4.295 0.338 0.409 0.277 1.012-0.132 1.353-0.177 0.146-0.391 0.218-0.607 0.218-0.274 0-0.552-0.12-0.742-0.349-1.879-2.285-4.651-3.599-7.608-3.599-2.862 0-5.579 1.241-7.45 3.409-0.348 0.4-0.952 0.443-1.354 0.095-0.402-0.344-0.446-0.952-0.097-1.354 2.239-2.585 5.483-4.069 8.9-4.069zM21.75 26.93c0.532 0 1.061 0.22 1.437 0.596 0.376 0.378 0.595 0.907 0.595 1.44 0 0.532-0.218 1.062-0.595 1.439s-0.905 0.596-1.437 0.596c-0.532 0-1.061-0.22-1.437-0.596s-0.595-0.907-0.595-1.439c0-0.533 0.218-1.062 0.595-1.44 0.376-0.376 0.905-0.596 1.437-0.596z"></path>
</svg>
